HIERARCHY
ROOT joint_0
{
	OFFSET 0.000000 0.000000 0.000000
	CHANNELS 6 Xposition Yposition Zposition Zrotation Yrotation Xrotation 
	JOINT joint_1
	{
		OFFSET 0.000000 0.000000 0.000000
		CHANNELS 3 Zrotation Yrotation Xrotation
		JOINT joint_2
		{
			OFFSET 3.811170 -8.520760 0.839290
			CHANNELS 3 Zrotation Yrotation Xrotation
			JOINT joint_3
			{
				OFFSET 2.562200 -7.039590 0.000000
				CHANNELS 3 Zrotation Yrotation Xrotation
				JOINT joint_4
				{
					OFFSET 0.157640 -0.433110 2.322550
					CHANNELS 3 Zrotation Yrotation Xrotation
					End Site
					{
						OFFSET 0.000000 0.000000 0.000000
					}
				}
			}
		}
	}
	JOINT joint_5
	{
		OFFSET 0.000000 0.000000 0.000000
		CHANNELS 3 Zrotation Yrotation Xrotation
		JOINT joint_6
		{
			OFFSET -3.848050 -8.780180 0.839290
			CHANNELS 3 Zrotation Yrotation Xrotation
			JOINT joint_7
			{
				OFFSET -2.568260 -7.056230 0.000000
				CHANNELS 3 Zrotation Yrotation Xrotation
				JOINT joint_8
				{
					OFFSET -0.164730 -0.452590 2.363150
					CHANNELS 3 Zrotation Yrotation Xrotation
					End Site
					{
						OFFSET 0.000000 0.000000 0.000000
					}
				}
			}
		}
	}
	JOINT joint_9
	{
		OFFSET 0.028270 2.035590 -0.193380
		CHANNELS 3 Zrotation Yrotation Xrotation
		JOINT joint_10
		{
			OFFSET 0.056720 2.048850 -0.042750
			CHANNELS 3 Zrotation Yrotation Xrotation
			JOINT joint_11
			{
				OFFSET -0.054170 1.746240 0.172020
				CHANNELS 3 Zrotation Yrotation Xrotation
				JOINT joint_12
				{
					OFFSET 0.104070 1.761360 -0.123970
					CHANNELS 3 Zrotation Yrotation Xrotation
					End Site
					{
						OFFSET 0.000000 0.000000 0.000000
					}
				}
			}
			JOINT joint_13
			{
				OFFSET 3.362410 1.200890 -0.311210
				CHANNELS 3 Zrotation Yrotation Xrotation
				JOINT joint_14
				{
					OFFSET 4.983000 -0.000000 -0.000000
					CHANNELS 3 Zrotation Yrotation Xrotation
					JOINT joint_15
					{
						OFFSET 3.483560 -0.000000 -0.000000
						CHANNELS 3 Zrotation Yrotation Xrotation
						JOINT joint_16
						{
							OFFSET 0.715260 -0.000000 -0.000000
							CHANNELS 3 Zrotation Yrotation Xrotation
							End Site
							{
								OFFSET 0.000000 0.000000 0.000000
							}
						}
					}
				}
			}
			JOINT joint_17
			{
				OFFSET -3.136600 1.374050 -0.404650
				CHANNELS 3 Zrotation Yrotation Xrotation
				JOINT joint_18
				{
					OFFSET -5.241900 -0.000000 -0.000000
					CHANNELS 3 Zrotation Yrotation Xrotation
					JOINT joint_19
					{
						OFFSET -3.444170 -0.000000 -0.000000
						CHANNELS 3 Zrotation Yrotation Xrotation
						JOINT joint_20
						{
							OFFSET -0.622530 -0.000000 -0.000000
							CHANNELS 3 Zrotation Yrotation Xrotation
							End Site
							{
								OFFSET 0.000000 0.000000 0.000000
							}
						}
					}
				}
			}
		}
	}
}
MOTION
Frames: 12
Frame Time: 0.031667
4.847296 15.567984 -2.364512 -5.013435 -25.555210 3.808602 -9.833195 12.213987 -31.576911 -4.825325 13.917281 27.731364 -0.793939 6.536085 -15.483679 0.104157 -0.640381 -1.571149 1.501533 -8.405992 0.033788 14.413260 -10.415144 23.873654 0.792563 -3.783079 -15.378267 -0.286759 0.150141 -0.092600 -0.375487 0.991264 -0.873249 2.123967 -0.681839 -5.334706 -0.538674 0.130351 3.852749 -0.990258 0.424702 4.028153 -43.537067 -30.827167 8.301597 53.234911 -55.074083 -20.181443 0.092829 -1.573668 1.761006 -6.978305 -0.002927 -0.037651 80.229963 26.355128 39.628061 -70.209393 61.211636 -29.005710 -0.457237 -1.692231 1.273157 6.944836 -0.027143 -0.004936 
4.817107 15.564921 -2.375835 -4.960369 -25.233309 3.832239 -10.031273 18.214072 -33.530010 -4.312953 14.644766 25.267281 -0.242874 5.936870 -10.268805 0.033148 -0.097882 -0.078856 -2.031282 -12.190690 0.466322 14.115271 -11.743600 25.628354 -0.746513 -1.664722 -14.127656 -0.225134 0.125924 0.120048 0.788377 1.760353 -2.179137 -0.145311 -0.051950 -7.778119 -0.197726 1.145966 1.789469 -1.121356 0.714644 3.836135 -42.125666 -32.013144 8.590848 54.211539 -59.477219 -20.471588 1.518141 -0.906269 2.000276 -6.965813 -0.003204 -0.037991 84.088890 28.012127 41.226810 -74.674998 66.462522 -30.622153 -0.371520 -1.290287 1.867304 6.922759 -0.016520 -0.003683 
4.786918 15.561857 -2.387158 -4.907456 -24.911741 3.856510 -10.640314 21.013625 -32.824615 -7.474778 15.458977 24.930301 0.079524 5.991940 -11.260858 -0.110558 0.237383 0.827649 -4.633842 -13.567763 -0.644907 17.288230 -12.692893 26.338328 0.958057 -1.675671 -15.603173 -0.036641 -0.063838 0.671369 1.379705 1.290896 -2.035050 -0.081202 -0.317336 -9.193547 0.195344 1.534801 1.197201 -1.044831 0.711128 3.587275 -41.962059 -33.414658 7.754317 54.524635 -60.710184 -17.667985 1.663377 -1.383608 2.553147 -6.948725 -0.003780 -0.045031 86.996864 28.000914 41.168183 -77.086731 68.365412 -28.795367 -0.406488 -1.081228 2.014908 6.895350 -0.013906 -0.006091 
4.756367 15.558990 -2.397638 -4.866138 -24.549143 3.883723 -8.881928 22.124612 -33.537291 -8.855577 16.877121 26.657600 0.165062 6.322755 -12.021821 -0.192694 0.445194 1.352012 -4.866997 -14.762264 0.411836 20.681697 -13.066388 25.912790 0.789344 -2.754167 -13.092735 0.172222 0.236206 -0.210926 2.310087 1.065016 -2.395673 -1.334435 0.811393 -8.772766 -0.938339 0.834703 0.590700 -0.889248 0.700531 3.086497 -41.848784 -34.784029 6.742881 53.630560 -60.810035 -15.864892 1.337436 -0.838219 2.650075 -6.932146 -0.003257 -0.048601 88.594889 28.694963 43.158705 -77.542789 69.044647 -28.129513 -1.414269 -1.131362 3.645884 6.873849 -0.013211 -0.007874 
4.725811 15.556126 -2.408110 -4.825040 -24.186731 3.911492 -10.284743 23.736021 -34.633560 -7.578155 16.351379 26.820601 1.356858 6.182278 -12.909169 -0.208075 0.404461 1.132617 -5.181854 -15.641502 1.937621 24.116204 -13.493989 26.388943 0.890289 -2.413092 -11.565618 0.321183 0.589281 -1.337238 0.877172 1.127781 -4.162742 -2.235023 0.462981 -10.129320 0.598098 0.182022 1.396351 -0.372515 0.652896 2.405008 -41.988677 -35.939731 5.812018 53.381623 -61.527854 -14.044532 0.205026 -1.288995 3.772607 -6.922678 -0.003968 -0.051681 90.357652 29.010682 42.794502 -80.440313 70.447309 -28.580298 -0.489226 -0.804825 3.337980 6.865170 -0.010902 -0.006608 
4.695186 15.553324 -2.417671 -4.793570 -23.777342 3.938570 -9.403380 24.596645 -35.122281 -9.219105 16.798271 26.905497 0.525454 6.138307 -10.639167 -0.264566 0.223017 0.541252 -5.492395 -16.238964 2.695585 24.427279 -14.200334 27.052434 1.443823 -2.381693 -13.764131 0.358153 0.808244 -1.999965 2.066828 1.775069 -3.144219 -1.833093 -0.132231 -10.692824 0.281077 0.364829 1.681365 0.192168 0.596224 1.853562 -42.348652 -36.456200 5.232324 54.437004 -61.746816 -13.093620 0.581992 -1.592137 3.806695 -6.920892 -0.005631 -0.054205 91.206364 29.166810 44.025743 -83.338328 70.993000 -29.140404 -0.755572 -1.119060 2.806425 6.863961 -0.007027 -0.003995 
4.664560 15.550523 -2.427211 -4.762252 -23.367880 3.965985 -10.736624 25.195504 -34.861234 -8.748500 17.055493 26.923846 0.454125 6.370558 -11.831972 -0.319605 0.234298 0.476110 -6.400594 -16.600409 4.812280 27.854478 -14.387426 25.924955 0.867698 -2.935191 -11.924797 0.419383 0.947503 -2.413536 0.952731 1.704969 -3.694063 -2.681489 0.563918 -9.956648 0.703091 0.128557 1.487242 0.285496 0.659991 1.416183 -42.934388 -36.791319 4.417484 55.806546 -63.429385 -12.138616 0.213898 -0.032766 3.553768 -6.914084 -0.006233 -0.050322 91.051319 29.186163 44.107675 -85.033417 72.559634 -30.143230 -0.245323 -1.614717 3.651519 6.861803 -0.007029 -0.001008 
4.634356 15.547652 -2.435450 -4.730384 -22.914324 3.990155 -9.644673 24.258875 -33.961603 -10.048204 16.938534 26.215221 -0.480547 6.011653 -12.195030 -0.296283 0.237942 0.395873 -5.928872 -17.128439 5.008968 28.341554 -14.059443 26.065402 1.433517 -3.012042 -10.355082 0.460885 1.015912 -2.548917 1.092235 1.624630 -3.525147 -3.283762 1.742422 -10.581810 0.395939 0.070189 1.963250 0.352809 0.545004 1.636649 -44.689279 -36.206635 4.917480 55.934738 -63.972112 -12.952389 0.615570 -0.344824 3.347918 -6.919009 -0.006670 -0.052083 89.923197 29.090647 43.952769 -84.810684 72.343731 -29.336912 -1.049158 -1.126668 2.792460 6.854121 -0.003288 -0.003681 
4.604167 15.544780 -2.443646 -4.698308 -22.460527 4.014283 -10.900420 23.906360 -34.417699 -9.055537 17.250225 26.788951 -1.590292 6.857320 -12.058770 -0.192374 0.160441 0.055579 -5.873081 -17.186139 5.207221 28.921931 -15.503168 27.117475 0.979363 -2.919948 -12.303405 0.493660 0.889975 -2.155001 -0.029587 2.271163 -3.243229 -3.055235 1.305224 -11.099797 1.093113 0.205684 1.305692 0.431651 0.340857 1.497145 -44.962524 -36.150754 5.042414 56.822645 -64.454555 -13.418221 0.076717 -0.946104 1.993195 -6.926331 -0.005562 -0.047570 89.186657 29.174064 44.037136 -85.299528 72.840648 -30.447528 -0.985372 -1.417148 1.963771 6.853203 0.004835 -0.005059 
4.574755 15.541664 -2.450464 -4.659977 -21.971764 4.033286 -9.692996 23.545376 -33.110476 -10.006499 16.842179 27.086536 -2.376589 6.707968 -11.498711 -0.065079 0.319441 0.454564 -5.128117 -16.732437 4.089589 28.554851 -16.559471 28.477338 1.141037 -2.352092 -12.419791 0.489268 0.707060 -1.561651 1.140308 2.036421 -2.424299 -3.147248 1.501963 -11.106449 0.082577 -0.116530 1.414160 0.487224 0.191592 1.426651 -47.422727 -35.708430 7.007037 58.233196 -64.339009 -14.289531 1.080357 -0.633293 1.755796 -6.934265 -0.003745 -0.044291 89.316608 29.370667 45.270576 -85.364428 73.053552 -31.227925 -1.244525 -1.207181 1.607598 6.851666 0.009160 -0.008008 
4.545377 15.538537 -2.457219 -4.621037 -21.482920 4.051727 -9.780844 22.710524 -33.427919 -9.145867 17.232094 27.670404 -4.610795 6.429799 -12.210499 0.029613 0.652988 1.376758 -5.109828 -16.058367 4.549100 28.725839 -16.531901 29.923472 1.373582 -2.321013 -12.736396 0.486287 0.540912 -1.072920 0.798750 2.204529 -2.729431 -2.614357 1.867352 -10.764929 0.534550 -0.652153 0.604419 0.596228 0.013553 1.458842 -47.810675 -35.066744 5.128807 57.990908 -65.352623 -14.657349 1.060555 -0.765527 2.005382 -6.937743 -0.003337 -0.045810 88.618283 30.007739 45.178857 -84.940280 73.846400 -31.110846 -1.482562 -0.672369 1.832781 6.852523 0.009201 -0.008017 
4.516542 15.534935 -2.463170 -4.581652 -20.968489 4.067556 -9.734770 22.642893 -33.108826 -9.029369 17.169962 28.632950 -3.790210 5.574127 -11.940355 -0.030403 0.813077 1.793509 -3.896534 -15.957210 4.442726 28.192584 -16.370469 29.877399 0.931400 -2.136794 -12.914802 0.585573 0.444281 -0.967873 1.267280 2.521477 -2.397771 -2.811004 1.345402 -10.892727 1.240078 -0.612640 1.737513 0.451373 -0.001012 1.299225 -48.541161 -35.023434 5.462218 58.566502 -65.439086 -14.462587 0.775465 -1.005925 2.078700 -6.939657 -0.004388 -0.048269 87.205840 30.450442 45.010967 -84.593819 74.065670 -31.109586 -1.241611 -1.029891 1.706528 6.850573 0.006714 -0.009434 
